<svg width="17" height="17" viewBox="0 0 17 17" fill="none" xmlns="http://www.w3.org/2000/svg">
<path d="M16.6219 14.5841C16.6219 14.5541 16.6172 14.5256 16.6132 14.4966V7.76559V7.76334C16.6132 7.68006 16.5968 7.5976 16.5649 7.52066C16.533 7.44373 16.4863 7.37383 16.4274 7.31495C16.3685 7.25607 16.2986 7.20938 16.2216 7.17753C16.1447 7.14569 16.0622 7.12931 15.9789 7.12934C15.9672 7.12934 15.9564 7.13209 15.9449 7.13284H14.7452V7.13734C14.5812 7.14182 14.4253 7.20984 14.3105 7.32706C14.1957 7.44428 14.131 7.60153 14.1299 7.76559H14.1279V14.6411H14.1387C14.1528 14.7939 14.2222 14.9363 14.3339 15.0416C14.4455 15.1469 14.5918 15.2078 14.7452 15.2128V15.2183H15.9879C16.3379 15.2183 16.6219 14.9343 16.6219 14.5841ZM12.8724 15.6391V6.51584L12.8727 6.51359C12.8727 6.43031 12.8563 6.34785 12.8244 6.27091C12.7925 6.19398 12.7458 6.12407 12.6869 6.0652C12.628 6.00632 12.5581 5.95963 12.4811 5.92778C12.4042 5.89594 12.3217 5.87956 12.2384 5.87959C12.2269 5.87959 12.2159 5.88234 12.2044 5.88309H9.72143C9.68438 5.82404 9.63928 5.77044 9.58743 5.72384L7.11743 1.44509L7.11118 1.44884C6.86368 1.01059 6.39918 0.714844 5.86618 0.714844C5.07343 0.714844 4.43068 1.36684 4.43068 2.17109H4.41618V5.88284H0.99518V5.88734C0.831171 5.89182 0.675317 5.95984 0.560521 6.07706C0.445725 6.19428 0.380972 6.35153 0.37993 6.51559H0.37793V13.5536H0.37943C0.37943 13.6343 0.41043 13.7151 0.47143 13.7771L0.47068 13.7778L2.91168 16.2188L2.91768 16.2128C2.98793 16.2706 3.07418 16.2923 3.15943 16.2808H12.1852C12.2034 16.2823 12.2209 16.2863 12.2394 16.2863C12.4016 16.2861 12.5575 16.2236 12.6749 16.1117C12.7922 15.9998 12.8622 15.8471 12.8702 15.6851H12.8722V15.6656C12.8722 15.6611 12.8734 15.6568 12.8734 15.6523C12.8734 15.6478 12.8727 15.6436 12.8724 15.6391ZM1.12618 13.5536L1.13668 13.5653L1.12493 13.5536H1.12618Z" fill="white"/>
</svg>
