<svg width="14" height="14" viewBox="0 0 14 14" fill="none" xmlns="http://www.w3.org/2000/svg">
<path d="M12.8422 7.33868C13.1047 6.99181 13.25 6.56681 13.25 6.12462C13.25 5.42306 12.8578 4.759 12.2266 4.38868C12.0641 4.29336 11.879 4.2432 11.6906 4.24337H7.94375L8.0375 2.32306C8.05938 1.859 7.89531 1.41837 7.57656 1.08243C7.42013 0.916852 7.23141 0.78511 7.02206 0.695348C6.8127 0.605586 6.58716 0.559711 6.35938 0.560558C5.54688 0.560558 4.82813 1.10743 4.6125 1.89025L3.27031 6.74962H3.26562V13.4371H10.6453C10.7891 13.4371 10.9297 13.409 11.0594 13.3527C11.8031 13.0356 12.2828 12.309 12.2828 11.5027C12.2828 11.3059 12.2547 11.1121 12.1984 10.9246C12.4609 10.5777 12.6062 10.1527 12.6062 9.71056C12.6062 9.51368 12.5781 9.31993 12.5219 9.13243C12.7844 8.78556 12.9297 8.36056 12.9297 7.91837C12.9266 7.7215 12.8984 7.52618 12.8422 7.33868ZM0.75 7.24962V12.9371C0.75 13.2137 0.973437 13.4371 1.25 13.4371H2.26562V6.74962H1.25C0.973437 6.74962 0.75 6.97306 0.75 7.24962Z" fill="white"/>
</svg>
