<svg width="14" height="14" viewBox="0 0 14 14" fill="none" xmlns="http://www.w3.org/2000/svg">
<path d="M12.8422 7.33868C13.1047 6.99181 13.25 6.56681 13.25 6.12462C13.25 5.42306 12.8578 4.759 12.2266 4.38868C12.0641 4.29336 11.879 4.2432 11.6906 4.24337H7.94375L8.0375 2.32306C8.05938 1.859 7.89531 1.41837 7.57656 1.08243C7.42013 0.916852 7.23141 0.78511 7.02206 0.695348C6.8127 0.605586 6.58716 0.559711 6.35938 0.560558C5.54688 0.560558 4.82813 1.10743 4.6125 1.89025L3.27031 6.74962H1.25C0.973437 6.74962 0.75 6.97306 0.75 7.24962V12.9371C0.75 13.2137 0.973437 13.4371 1.25 13.4371H10.6453C10.7891 13.4371 10.9297 13.409 11.0594 13.3527C11.8031 13.0356 12.2828 12.309 12.2828 11.5027C12.2828 11.3059 12.2547 11.1121 12.1984 10.9246C12.4609 10.5777 12.6062 10.1527 12.6062 9.71056C12.6062 9.51368 12.5781 9.31993 12.5219 9.13243C12.7844 8.78556 12.9297 8.36056 12.9297 7.91837C12.9266 7.7215 12.8984 7.52618 12.8422 7.33868ZM1.875 12.3121V7.87462H3.14062V12.3121H1.875ZM11.8188 6.7965L11.4766 7.09337L11.6938 7.49025C11.7653 7.62098 11.8024 7.76778 11.8016 7.91681C11.8016 8.17462 11.6891 8.41993 11.4953 8.58868L11.1531 8.88556L11.3703 9.28243C11.4419 9.41317 11.479 9.55996 11.4781 9.709C11.4781 9.96681 11.3656 10.2121 11.1719 10.3809L10.8297 10.6777L11.0469 11.0746C11.1184 11.2054 11.1555 11.3521 11.1547 11.5012C11.1547 11.8512 10.9484 12.1668 10.6297 12.3106H4.14062V7.82462L5.69531 2.19181C5.7354 2.04743 5.82146 1.92006 5.94044 1.82899C6.05943 1.73792 6.20485 1.68811 6.35469 1.68712C6.47344 1.68712 6.59062 1.7215 6.68437 1.79181C6.83906 1.90743 6.92187 2.08243 6.9125 2.26837L6.7625 5.36837H11.675C11.9531 5.53868 12.125 5.82618 12.125 6.12462C12.125 6.38243 12.0125 6.62618 11.8188 6.7965Z" fill="white"/>
</svg>
