<svg width="109" height="119" viewBox="0 0 109 119" fill="none" xmlns="http://www.w3.org/2000/svg">
<path fill-rule="evenodd" clip-rule="evenodd" d="M66 33.7218C67.5007 34.5882 68.4384 35.9422 68.813 37.4179H0V28.9179C0 30.4179 0.00022494 30.4179 0.000673956 30.4179H0.00269237H0.00605006H0.0107419H0.0167626H0.024107H0.03277H0.0427464H0.0540309H0.0666185H0.0805039H0.0956819H0.112147H0.129895H0.14892H0.169217H0.19078H0.213606H0.237687H0.26302H0.289599H0.317418H0.346473H0.376759H0.40827H0.441001H0.474947H0.510103H0.546463H0.584023H0.622777H0.66272H0.703847H0.746152H0.789631H0.834278H0.880089H0.927057H0.975178H1.02445H1.07486H1.12641H1.17909H1.23289H1.28782H1.34387H1.40102H1.45929H1.51865H1.57911H1.64066H1.70329H1.76701H1.8318H1.89766H1.96459H2.03257H2.10161H2.1717H2.24283H2.315H2.38821H2.46244H2.5377H2.61397H2.69126H2.76955H2.84885H2.92914H3.01043H3.0927H3.17596H3.26019H3.34539H3.43156H3.51869H3.60678H3.69582H3.7858H3.87672H3.96858H4.06137H4.15508H4.24972H4.34526H4.44172H4.53908H4.63734H4.73649H4.83653H4.93746H5.03926H5.14194H5.24548H5.34989H5.45515H5.56127H5.66823H5.77604H5.88468H5.99415H6.10445H6.21557H6.32751H6.44025H6.55381H6.66816H6.78331H6.89925H7.01597H7.13348H7.25175H7.3708H7.49061H7.61118H7.73251H7.85458H7.9774H8.10095H8.22524H8.35026H8.476H8.60245H8.72962H8.85749H8.98607H9.11535H9.24531H9.37597H9.5073H9.63931H9.77199H9.90534H10.0393H10.174H10.3093H10.4453H10.5819H10.7191H10.857H10.9955H11.1346H11.2743H11.4146H11.5555H11.6971H11.8392H11.9819H12.1252H12.2691H12.4135H12.5585H12.7041H12.8502H12.9969H13.1441H13.2919H13.4402H13.589H13.7384H13.8883H14.0387H14.1896H14.341H14.4929H14.6453H14.7982H14.9516H15.1055H15.2598H15.4146H15.5699H15.7256H15.8818H16.0384H16.1955H16.353H16.5109H16.6693H16.8281H16.9873H17.1469H17.307H17.4674H17.6282H17.7894H17.951H18.113H18.2754H18.4381H18.6012H18.7646H18.9285H19.0926H19.2571H19.422H19.5871H19.7526H19.9185H20.0846H20.2511H20.4179H20.5849H20.7523H20.92H21.0879H21.2561H21.4246H21.5934H21.7625H21.9318H22.1014H22.2712H22.4412H22.6115H22.7821H22.9529H23.1239H23.2951H23.4665H23.6381H23.81H23.982H24.1543H24.3267H24.4993H24.6721H24.8451H25.0182H25.1915H25.365H25.5386H25.7123H25.8862H26.0602H26.2344H26.4087H26.5831H26.7577H26.9323H27.107H27.2819H27.4568H27.6319H27.807H27.9822H28.1575H28.3328H28.5082H28.6837H28.8592H29.0348H29.2104H29.3861H29.5618H29.7375H29.9132H30.089H30.2648H30.4406H30.6163H30.7921H30.9679H31.1437H31.3194H31.4951H31.6708H31.8465H32.0221H32.1977H32.3732H32.5487H32.7241H32.8994H33.0747H33.2499H33.425H33.6H33.775H33.9498H34.1246H34.2992H34.4738H34.6482H34.8225H34.9966H35.1707H35.3446H35.5183H35.6919H35.8654H36.0387H36.2118H36.3848H36.5575H36.7301H36.9026H37.0748H37.2468H37.4187H37.5903H37.7618H37.933H38.104H38.2747H38.4453H38.6156H38.7856H38.9554H39.125H39.2943H39.4634H39.6321H39.8006H39.9689H40.1368H40.3045H40.4718H40.6389H40.8057H40.9721H41.1383H41.3041H41.4696H41.6348H41.7996H41.9641H42.1282H42.292H42.4555H42.6186H42.7813H42.9437H43.1056H43.2672H43.4284H43.5892H43.7497H43.9097H44.0693H44.2285H44.3873H44.5457H44.7036H44.8611H45.0182H45.1748H45.3309H45.4867H45.6419H45.7967H45.951H46.1049H46.2583H46.4112H46.5636H46.7155H46.8669H47.0178H47.1682H47.318H47.4674H47.6162H47.7645H47.9123H48.0595H48.2062H48.3523H48.4979H48.6429H48.7873H48.9311H49.0744H49.2171H49.3592H49.5008H49.6417H49.782H49.9217H50.0608H50.1993H50.3371H50.4743H50.6109H50.7469H50.8822H51.0168H51.1508H51.2842H51.4168H51.5488H51.6802H51.8108H51.9408H52.07H52.1986H52.3264H52.4536H52.58H52.7058H52.8308H52.955H53.0786H53.2014H53.3234H53.4448H53.5653H53.6851H53.8041H53.9224H54.0399H54.1566H54.2725H54.3877H54.502H54.6156H54.7283H54.8402H54.9513H55.0616H55.1711H55.2797H55.3875H55.4944H55.6005H55.7058H55.8102H55.9137H56.0164H56.1181H56.2191H56.3191H56.4182H56.5165H56.6138H56.7102H56.8058H56.9004H56.9941H57.0869H57.1787H57.2696H57.3596H57.4486H57.5367H57.6238H57.7099H57.7951H57.8793H57.9626H58.0448H58.1261H58.2064H58.2857H58.3639H58.4412H58.5175H58.5927H58.6669H58.7401H58.8122H58.8834H58.9534H59.0224H59.0904H59.1573H59.2232H59.2879H59.3516H59.4142H59.4758H59.5362H59.5956H59.6538H59.7109H59.767H59.8219H59.8757H59.9283H59.9799H60.0302H60.0795H60.1276H60.1745H60.2203H60.265H60.2776L66 33.7218ZM0 28.9179V6.00895C0 1.39015 5 -1.4966 9 0.812799L55.0814 27.4179H55.0616H54.9513H54.8402H54.7283H54.6156H54.502H54.3877H54.2725H54.1566H54.0399H53.9224H53.8041H53.6851H53.5653H53.4448H53.3234H53.2014H53.0786H52.955H52.8308H52.7058H52.58H52.4536H52.3264H52.1986H52.07H51.9408H51.8108H51.6802H51.5488H51.4168H51.2842H51.1508H51.0168H50.8822H50.7469H50.6109H50.4743H50.3371H50.1993H50.0608H49.9217H49.782H49.6417H49.5008H49.3592H49.2171H49.0744H48.9311H48.7873H48.6429H48.4979H48.3523H48.2062H48.0595H47.9123H47.7645H47.6162H47.4674H47.318H47.1682H47.0178H46.8669H46.7155H46.5636H46.4112H46.2583H46.1049H45.951H45.7967H45.6419H45.4867H45.3309H45.1748H45.0182H44.8611H44.7036H44.5457H44.3873H44.2285H44.0693H43.9097H43.7497H43.5892H43.4284H43.2672H43.1056H42.9437H42.7813H42.6186H42.4555H42.292H42.1282H41.9641H41.7996H41.6348H41.4696H41.3041H41.1383H40.9721H40.8057H40.6389H40.4718H40.3045H40.1368H39.9689H39.8006H39.6321H39.4634H39.2943H39.125H38.9554H38.7856H38.6156H38.4453H38.2747H38.104H37.933H37.7618H37.5903H37.4187H37.2468H37.0748H36.9026H36.7301H36.5575H36.3848H36.2118H36.0387H35.8654H35.6919H35.5183H35.3446H35.1707H34.9966H34.8225H34.6482H34.4738H34.2992H34.1246H33.9498H33.775H33.6H33.425H33.2499H33.0747H32.8994H32.7241H32.5487H32.3732H32.1977H32.0221H31.8465H31.6708H31.4951H31.3194H31.1437H30.9679H30.7921H30.6163H30.4406H30.2648H30.089H29.9132H29.7375H29.5618H29.3861H29.2104H29.0348H28.8592H28.6837H28.5082H28.3328H28.1575H27.9822H27.807H27.6319H27.4568H27.2819H27.107H26.9323H26.7577H26.5831H26.4087H26.2344H26.0602H25.8862H25.7123H25.5386H25.365H25.1915H25.0182H24.8451H24.6721H24.4993H24.3267H24.1543H23.982H23.81H23.6381H23.4665H23.2951H23.1239H22.9529H22.7821H22.6115H22.4412H22.2712H22.1014H21.9318H21.7625H21.5934H21.4246H21.2561H21.0879H20.92H20.7523H20.5849H20.4179H20.2511H20.0846H19.9185H19.7526H19.5871H19.422H19.2571H19.0926H18.9285H18.7646H18.6012H18.4381H18.2754H18.113H17.951H17.7894H17.6282H17.4674H17.307H17.1469H16.9873H16.8281H16.6693H16.5109H16.353H16.1955H16.0384H15.8818H15.7256H15.5699H15.4146H15.2598H15.1055H14.9516H14.7982H14.6453H14.4929H14.341H14.1896H14.0387H13.8883H13.7384H13.589H13.4402H13.2919H13.1441H12.9969H12.8502H12.7041H12.5585H12.4135H12.2691H12.1252H11.9819H11.8392H11.6971H11.5555H11.4146H11.2743H11.1346H10.9955H10.857H10.7191H10.5819H10.4453H10.3093H10.174H10.0393H9.90534H9.77199H9.63931H9.5073H9.37597H9.24531H9.11535H8.98607H8.85749H8.72962H8.60245H8.476H8.35026H8.22524H8.10095H7.9774H7.85458H7.73251H7.61118H7.49061H7.3708H7.25175H7.13348H7.01597H6.89925H6.78331H6.66816H6.55381H6.44025H6.32751H6.21557H6.10445H5.99415H5.88468H5.77604H5.66823H5.56127H5.45515H5.34989H5.24548H5.14194H5.03926H4.93746H4.83653H4.73649H4.63734H4.53908H4.44172H4.34526H4.24972H4.15508H4.06137H3.96858H3.87672H3.7858H3.69582H3.60678H3.51869H3.43156H3.34539H3.26019H3.17596H3.0927H3.01043H2.92914H2.84885H2.76955H2.69126H2.61397H2.5377H2.46244H2.38821H2.315H2.24283H2.1717H2.10161H2.03257H1.96459H1.89766H1.8318H1.76701H1.70329H1.64066H1.57911H1.51865H1.45929H1.40102H1.34387H1.28782H1.23289H1.17909H1.12641H1.07486H1.02445H0.975178H0.927057H0.880089H0.834278H0.789631H0.746152H0.703847H0.66272H0.622777H0.584023H0.546463H0.510103H0.474947H0.441001H0.40827H0.376759H0.346473H0.317418H0.289599H0.26302H0.237687H0.213606H0.19078H0.169217H0.14892H0.129895H0.112147H0.0956819H0.0805039H0.0666185H0.0540309H0.0427464H0.03277H0.024107H0.0167626H0.0107419H0.00605006H0.00269237H0.000673956C0.00022494 27.4179 0 27.4179 0 28.9179ZM0 40.4179H68.813C68.4384 41.8936 67.5007 43.2477 66 44.1141L60.2776 47.4179H0V40.4179ZM0 50.4179H55.0814L9 77.023C5 79.3324 0 76.4457 0 71.8269V50.4179Z" fill="#F59E0B"/>
<path fill-rule="evenodd" clip-rule="evenodd" d="M42.8135 85.1142C41.3128 84.2478 40.3751 82.8938 40.0005 81.418L108.813 81.418V89.918C108.813 88.418 108.813 88.418 108.813 88.418H108.811H108.807H108.803H108.797H108.789H108.781H108.771H108.759H108.747H108.733H108.718H108.701H108.684H108.665H108.644H108.623H108.6H108.576H108.55H108.524H108.496H108.467H108.437H108.405H108.372H108.339H108.303H108.267H108.229H108.191H108.151H108.11H108.067H108.024H107.979H107.933H107.886H107.838H107.789H107.739H107.687H107.634H107.581H107.526H107.47H107.412H107.354H107.295H107.234H107.173H107.11H107.046H106.982H106.916H106.849H106.781H106.712H106.642H106.571H106.498H106.425H106.351H106.276H106.2H106.122H106.044H105.965H105.884H105.803H105.721H105.638H105.553H105.468H105.382H105.295H105.207H105.118H105.028H104.937H104.845H104.752H104.658H104.564H104.468H104.372H104.274H104.176H104.077H103.977H103.876H103.774H103.672H103.568H103.464H103.358H103.252H103.145H103.037H102.929H102.819H102.709H102.598H102.486H102.373H102.26H102.145H102.03H101.914H101.798H101.68H101.562H101.443H101.323H101.202H101.081H100.959H100.836H100.713H100.588H100.463H100.337H100.211H100.084H99.956H99.8274H99.6981H99.5682H99.4375H99.3062H99.1742H99.0415H98.9081H98.7741H98.6395H98.5042H98.3682H98.2316H98.0944H97.9565H97.818H97.6789H97.5392H97.3989H97.2579H97.1164H96.9743H96.8316H96.6883H96.5444H96.4H96.255H96.1094H95.9633H95.8166H95.6693H95.5216H95.3733H95.2244H95.0751H94.9252H94.7748H94.6239H94.4725H94.3206H94.1681H94.0152H93.8619H93.708H93.5537H93.3989H93.2436H93.0879H92.9317H92.7751H92.618H92.4605H92.3025H92.1442H91.9854H91.8262H91.6665H91.5065H91.3461H91.1853H91.024H90.8624H90.7005H90.5381H90.3754H90.2123H90.0488H89.885H89.7209H89.5564H89.3915H89.2263H89.0608H88.895H88.7289H88.5624H88.3956H88.2286H88.0612H87.8935H87.7256H87.5573H87.3888H87.22H87.051H86.8817H86.7121H86.5423H86.3722H86.2019H86.0314H85.8606H85.6896H85.5184H85.347H85.1753H85.0035H84.8314H84.6592H84.4868H84.3142H84.1414H83.9684H83.7953H83.622H83.4485H83.2749H83.1012H82.9273H82.7532H82.5791H82.4048H82.2304H82.0558H81.8812H81.7064H81.5316H81.3566H81.1816H81.0065H80.8313H80.656H80.4806H80.3052H80.1298H79.9542H79.7787H79.603H79.4274H79.2517H79.076H78.9002H78.7245H78.5487H78.3729H78.1971H78.0214H77.8456H77.6698H77.4941H77.3184H77.1427H76.967H76.7914H76.6158H76.4403H76.2648H76.0894H75.9141H75.7388H75.5636H75.3885H75.2134H75.0385H74.8636H74.6889H74.5142H74.3397H74.1653H73.991H73.8168H73.6428H73.4689H73.2952H73.1216H72.9481H72.7748H72.6017H72.4287H72.2559H72.0833H71.9109H71.7387H71.5666H71.3948H71.2231H71.0517H70.8805H70.7095H70.5387H70.3682H70.1979H70.0278H69.858H69.6885H69.5192H69.3501H69.1813H69.0128H68.8446H68.6767H68.509H68.3416H68.1746H68.0078H67.8414H67.6752H67.5094H67.3439H67.1787H67.0139H66.8494H66.6852H66.5214H66.358H66.1949H66.0322H65.8698H65.7078H65.5463H65.385L65.2242 88.418H65.0638H64.9038H64.7442H64.585H64.4262H64.2678H64.1099H63.9524H63.7953H63.6387H63.4825H63.3268H63.1716H63.0168H62.8624H62.7086H62.5552H62.4023H62.2499H62.098H61.9466H61.7957H61.6453H61.4954H61.3461H61.1973H61.049H60.9012H60.754H60.6073H60.4612H60.3156H60.1706H60.0262H59.8823H59.739H59.5963H59.4542H59.3127H59.1718H59.0315H58.8918H58.7527H58.6142H58.4763H58.3391H58.2025H58.0666H57.9313H57.7966H57.6626H57.5293H57.3966H57.2646H57.1333H57.0027H56.8727H56.7435H56.6149H56.487H56.3599H56.2334H56.1077H55.9827H55.8584H55.7349H55.6121H55.49H55.3687H55.2482H55.1284H55.0093H54.8911H54.7736H54.6569H54.5409H54.4258H54.3115H54.1979H54.0852H53.9733H53.8622H53.7519H53.6424H53.5338H53.426H53.3191H53.213H53.1077H53.0033H52.8998H52.7971H52.6953H52.5944H52.4944H52.3953H52.297H52.1997H52.1032H52.0077H51.9131H51.8194H51.7266H51.6348H51.5439H51.4539H51.3649H51.2768H51.1897H51.1035H51.0184H50.9341H50.8509H50.7687H50.6874H50.6071H50.5278H50.4495H50.3723H50.296H50.2208H50.1466H50.0734H50.0012H49.9301H49.86H49.791H49.7231H49.6562H49.5903H49.5255H49.4618H49.3992H49.3377H49.2773H49.2179H49.1597H49.1025H49.0465H48.9916H48.9378H48.8851H48.8336H48.7832H48.734H48.6859H48.6389H48.5931H48.5485H48.5359L42.8135 85.1142ZM108.813 89.918V112.827C108.813 117.446 103.813 120.333 99.8135 118.023L53.7321 91.418H53.7519H53.8622H53.9733H54.0852H54.1979H54.3115H54.4258H54.5409H54.6569H54.7736H54.8911H55.0093H55.1284H55.2482H55.3687H55.49H55.6121H55.7349H55.8584H55.9827H56.1077H56.2334H56.3599H56.487H56.6149H56.7435H56.8727H57.0027H57.1333H57.2646H57.3966H57.5293H57.6626H57.7966H57.9313H58.0666H58.2025H58.3391H58.4763H58.6142H58.7527H58.8918H59.0315H59.1718H59.3127H59.4542H59.5963H59.739H59.8823H60.0262H60.1706H60.3156H60.4612H60.6073H60.754H60.9012H61.049H61.1973H61.3461H61.4954H61.6453H61.7957H61.9466H62.098H62.2499H62.4023H62.5552H62.7086H62.8624H63.0168H63.1716H63.3268H63.4825H63.6387H63.7953H63.9524H64.1099H64.2678H64.4262H64.585H64.7442H64.9038H65.0638H65.2242L65.385 91.418H65.5463H65.7078H65.8698H66.0322H66.1949H66.358H66.5214H66.6852H66.8494H67.0139H67.1787H67.3439H67.5094H67.6752H67.8414H68.0078H68.1746H68.3416H68.509H68.6767H68.8446H69.0128H69.1813H69.3501H69.5192H69.6885H69.858H70.0278H70.1979H70.3682H70.5387H70.7095H70.8805H71.0517H71.2231H71.3948H71.5666H71.7387H71.9109H72.0833H72.2559H72.4287H72.6017H72.7748H72.9481H73.1216H73.2952H73.4689H73.6428H73.8168H73.991H74.1653H74.3397H74.5142H74.6889H74.8636H75.0385H75.2134H75.3885H75.5636H75.7388H75.9141H76.0894H76.2648H76.4403H76.6158H76.7914H76.967H77.1427H77.3184H77.4941H77.6698H77.8456H78.0214H78.1971H78.3729H78.5487H78.7245H78.9002H79.076H79.2517H79.4274H79.603H79.7787H79.9542H80.1298H80.3052H80.4806H80.656H80.8313H81.0065H81.1816H81.3566H81.5316H81.7064H81.8812H82.0558H82.2304H82.4048H82.5791H82.7532H82.9273H83.1012H83.2749H83.4485H83.622H83.7953H83.9684H84.1414H84.3142H84.4868H84.6592H84.8314H85.0035H85.1753H85.347H85.5184H85.6896H85.8606H86.0314H86.2019H86.3722H86.5423H86.7121H86.8817H87.051H87.22H87.3888H87.5573H87.7256H87.8935H88.0612H88.2286H88.3956H88.5624H88.7289H88.895H89.0608H89.2263H89.3915H89.5564H89.7209H89.885H90.0488H90.2123H90.3754H90.5381H90.7005H90.8624H91.024H91.1853H91.3461H91.5065H91.6665H91.8262H91.9854H92.1442H92.3025H92.4605H92.618H92.7751H92.9317H93.0879H93.2436H93.3989H93.5537H93.708H93.8619H94.0152H94.1681H94.3206H94.4725H94.6239H94.7748H94.9252H95.0751H95.2244H95.3733H95.5216H95.6693H95.8166H95.9633H96.1094H96.255H96.4H96.5444H96.6883H96.8316H96.9743H97.1164H97.2579H97.3989H97.5392H97.6789H97.818H97.9565H98.0944H98.2316H98.3682H98.5042H98.6395H98.7741H98.9081H99.0415H99.1742H99.3062H99.4375H99.5682H99.6981H99.8274H99.956H100.084H100.211H100.337H100.463H100.588H100.713H100.836H100.959H101.081H101.202H101.323H101.443H101.562H101.68H101.798H101.914H102.03H102.145H102.26H102.373H102.486H102.598H102.709H102.819H102.929H103.037H103.145H103.252H103.358H103.464H103.568H103.672H103.774H103.876H103.977H104.077H104.176H104.274H104.372H104.468H104.564H104.658H104.752H104.845H104.937H105.028H105.118H105.207H105.295H105.382H105.468H105.553H105.638H105.721H105.803H105.884H105.965H106.044H106.122H106.2H106.276H106.351H106.425H106.498H106.571H106.642H106.712H106.781H106.849H106.916H106.982H107.046H107.11H107.173H107.234H107.295H107.354H107.412H107.47H107.526H107.581H107.634H107.687H107.739H107.789H107.838H107.886H107.933H107.979H108.024H108.067H108.11H108.151H108.191H108.229H108.267H108.303H108.339H108.372H108.405H108.437H108.467H108.496H108.524H108.55H108.576H108.6H108.623H108.644H108.665H108.684H108.701H108.718H108.733H108.747H108.759H108.771H108.781H108.789H108.797H108.803H108.807H108.811H108.813C108.813 91.418 108.813 91.418 108.813 89.918ZM108.813 78.418L40.0005 78.418C40.3751 76.9423 41.3128 75.5883 42.8135 74.7219L48.5359 71.418L108.813 71.418V78.418ZM108.813 68.418L53.7321 68.418L99.8135 41.8129C103.813 39.5035 108.813 42.3903 108.813 47.0091L108.813 68.418Z" fill="#F59E0B"/>
</svg>
